<svg viewBox="0 0 512 512" xml:space="preserve" xmlns="http://www.w3.org/2000/svg" enable-background="new 0 0 512 512"><path d="M305.46 235.408c1.374 7.256 2.353 14.513 2.353 23.926 0 82.171-55.107 140.416-138.063 140.416-79.425 0-143.749-64.325-143.749-143.749 0-79.427 64.324-143.751 143.749-143.751 38.831 0 71.189 14.12 96.292 37.653l-39.027 37.457c-10.59-10.197-29.22-22.16-57.265-22.16-49.027 0-89.034 40.596-89.034 90.801 0 50.202 40.007 90.798 89.034 90.798 56.873 0 78.249-40.986 81.582-61.972H169.75v-49.419h135.71zm138.813 4.82V198.5h-41.928v41.728h-41.729v41.929h41.729v41.724h41.928v-41.724h41.726v-41.929h-41.726z" fill="#ffffff" class="fill-dc4e41"></path></svg>