<svg viewBox="0 0 512 512" xml:space="preserve" xmlns="http://www.w3.org/2000/svg"><path d="M232.2 336.4c-1.5 4.1-1.9 8.1-2.8 11.9-3.9 15.7-6.9 31.6-10.7 47.3-2.9 11.9-6 23.9-10.2 35.5-3.6 10.2-8.5 20.1-13.4 29.8-7.6 15.3-16.9 29.7-27 43.4-1.7 2.3-2.6 6.3-6.1 5.4-4.2-1.1-3.5-5.4-3.9-8.8-2.9-21.7-3.7-43.4-3-65.2.4-11.4.8-23 3.6-34.1 2.9-11.3 5-22.8 7.7-34.1 1.9-8 3.7-16.2 4.9-24.4 1.1-7.7 4.1-15.1 5.3-22.7 1.6-10.3 4.5-20.3 6.6-30.5 1.9-9.2 4.3-18.4 6.2-27.6 1.3-6.3 2.6-12.5 4.3-18.7.8-3 .2-6.2-1.3-9.5-4-8.8-4.9-18.5-6.3-27.9-1.8-12.1-.8-24.3 2.1-36.1 4.5-18.1 11.7-34.7 28.4-45.5 18.5-11.9 44.6-6.5 52.8 15.2 5.2 14 4.1 27.8 2.1 42-1.7 12.3-5.4 24.1-8.8 35.9-2.7 9.1-5.6 18.2-7.9 27.4-1.8 7.5-5.2 14.9-4.8 22.9.2 4.4-.8 8.7-.5 13.3 1.1 17.9 11.3 29.2 26.3 36 8.4 3.8 18.1 4 27.9 1.5 10.3-2.6 18.8-7.4 26.8-13.7 9.1-7.2 15.3-16.8 21.3-26.4 6.2-9.9 10.3-21 13.8-32.1 4.5-14.6 7.6-29.7 9.7-45 1.6-12 1.6-23.9 1.9-35.8.5-21.9-5.1-42.4-15.6-61.2-6.5-11.7-16.2-20.9-27.3-29-9.3-6.7-19.7-10.2-29.8-14.5-3.4-1.5-7.3-1.7-10.9-2.6-11.8-2.9-24-2.7-36-2.2-14.8.6-29.1 3.8-42.8 9.4-14.5 6-27.5 14.5-38.7 25.4-11.7 10.9-20.9 23.9-28.1 38.4-5.6 11.4-9.7 23.6-11.6 35.9-2.3 15.3-4.1 30.7-1.2 46.5 1.8 10.1 5 19.6 9.1 28.8 1.9 4.3 4.9 8.2 8.1 11.7 3.7 4.1 4.3 8.6 3.3 13.4-1.7 8.4-3.8 16.8-5.9 25.1-1.6 6.4-8.9 9.3-15.1 6.2-18.8-9.7-32.2-24.4-40.6-43.8-7.7-17.9-12.1-36.6-12.2-56.3-.1-13.8-.9-27.7 2.3-41.2 2.5-10.9 5.4-21.6 9.4-32.1 5.1-13.4 11.9-25.6 19.7-37.5 11.6-17.8 26.6-32.5 43.8-44.9 13.1-9.5 27.4-17.3 42.5-22.7 9.5-3.4 19.3-5.9 29.3-8 17.9-3.6 35.8-4.9 53.8-4.3 9.7.3 19.2 2.7 28.8 4.1 13 2 24.8 6.9 36.6 12 7.9 3.4 15.4 7.9 22.6 12.8 11.4 7.7 21.6 16.8 30.7 27 10.8 12 19.2 25.6 26.1 40.3 3.4 7.1 5.7 14.6 8.9 21.8 1.4 3.1 1.8 6.9 2.3 10.4.9 5.8 1.6 11.8 2.8 17.4 2.5 11.8 1.6 23.5 1.2 35.1-.3 9.9-1.1 19.9-3.4 29.7-1.1 4.6-.8 9.3-2 14.1-2 7.7-3.8 15.5-5.9 23.2-3.2 12-7.9 23.4-13.4 34.4-11.8 23.8-27.4 44.6-49.7 59.9-7.9 5.4-16.1 10.2-25 13.7-19.6 7.5-40.1 10.8-60.8 6.7-19.1-3.8-35.5-13.1-47.3-29.4-.7-1.3-1.8-2-3-3.1z" fill="#ffffff" class="fill-a7a7a7"></path></svg>